<?xml version="1.0" encoding="UTF-8" standalone="no"?>
<!-- Created with Inkscape (http://www.inkscape.org/) -->

<svg
   xmlns:dc="http://purl.org/dc/elements/1.1/"
   xmlns:cc="http://creativecommons.org/ns#"
   xmlns:rdf="http://www.w3.org/1999/02/22-rdf-syntax-ns#"
   xmlns:svg="http://www.w3.org/2000/svg"
   xmlns="http://www.w3.org/2000/svg"
   xmlns:sodipodi="http://sodipodi.sourceforge.net/DTD/sodipodi-0.dtd"
   xmlns:inkscape="http://www.inkscape.org/namespaces/inkscape"
   width="210mm"
   height="210mm"
   viewBox="0 0 210 210"
   version="1.1"
   id="svg5"
   inkscape:version="0.92.4 (5da689c313, 2019-01-14)"
   sodipodi:docname="logo_Metasequoia.svg"
   inkscape:export-filename="D:\Users\haruka.dev\ResDev\_EEICT\LangInfo\Metasequoia\spec.msq\assets\logo_Metasequoia.png"
   inkscape:export-xdpi="960.284"
   inkscape:export-ydpi="960.284">
  <metadata
     id="metadata6">
    <rdf:RDF>
      <cc:Work
         rdf:about="">
        <dc:format>image/svg+xml</dc:format>
        <dc:type
           rdf:resource="http://purl.org/dc/dcmitype/StillImage" />
        <dc:title />
      </cc:Work>
    </rdf:RDF>
  </metadata>
  <sodipodi:namedview
     id="namedview7"
     pagecolor="#ffffff"
     bordercolor="#111111"
     borderopacity="1"
     inkscape:showpageshadow="0"
     inkscape:pageopacity="0"
     inkscape:pagecheckerboard="1"
     inkscape:deskcolor="#d1d1d1"
     inkscape:document-units="mm"
     showgrid="false"
     inkscape:zoom="0.39776586"
     inkscape:cx="143.79393"
     inkscape:cy="556.78347"
     inkscape:window-width="1842"
     inkscape:window-height="1051"
     inkscape:window-x="69"
     inkscape:window-y="-9"
     inkscape:window-maximized="1"
     inkscape:current-layer="layer1"
     showguides="false"
     inkscape:lockguides="true" />
  <defs
     id="defs2" />
  <g
     inkscape:label="Layer 1"
     inkscape:groupmode="layer"
     id="layer1">
    <g
       id="g1325"
       transform="matrix(0.55961547,-0.34029768,0.34029768,0.55961547,14.583949,75.480087)">
      <path
         inkscape:connector-curvature="0"
         id="path816"
         d="m 55.535898,22.764257 c -3.703651,0 -9.333929,11.249677 -12.38115,40.742293 -3.047221,29.492615 0.258337,40.74281 3.961988,40.74281 3.703648,0 9.334498,-11.250195 12.381719,-40.74281 3.047221,-29.492617 -0.258909,-40.742293 -3.962557,-40.742293 z"
         style="fill:#8ca210;fill-opacity:1;stroke:#7a8a1c;stroke-width:0.45700163;stroke-linecap:butt;stroke-linejoin:miter;stroke-miterlimit:4;stroke-dasharray:none;stroke-opacity:1" />
      <path
         inkscape:connector-curvature="0"
         id="path816-2"
         d="m 47.364277,99.012502 c -4.005859,1.490108 -7.820584,12.739818 -2.79456,40.742308 4.474924,26.3468 9.149515,39.25269 13.548696,40.74281 4.005858,-1.49012 6.836596,-13.8993 2.795008,-40.74281 -2.365334,-28.00249 -9.149964,-39.2522 -13.549144,-40.742308 z"
         style="fill:#889f0f;fill-opacity:1;stroke:#7a8a1c;stroke-width:0.45700163;stroke-linecap:butt;stroke-linejoin:miter;stroke-miterlimit:4;stroke-dasharray:none;stroke-opacity:1" />
      <path
         sodipodi:nodetypes="sscss"
         inkscape:connector-curvature="0"
         id="path816-6"
         d="m 34.14874,103.25285 c -3.53768,-0.80538 -7.039957,-12.506148 -3.317498,-37.978208 1.995203,-13.652773 7.20732,-33.953298 10.553603,-32.665261 3.34628,1.288056 6.123665,12.572477 3.140427,38.105463 -2.599933,22.252362 -4.198827,33.944396 -10.376532,32.538006 z"
         style="fill:#92a810;fill-opacity:1;stroke:#7a8a1c;stroke-width:0.413385;stroke-linecap:butt;stroke-linejoin:miter;stroke-miterlimit:4;stroke-dasharray:none;stroke-opacity:1" />
      <path
         sodipodi:nodetypes="ccccc"
         id="path816-60"
         d="m 69.353013,18.654047 c -3.147722,2.458576 -9.394132,11.249677 -12.599186,40.742293 -3.205053,29.492615 0.752382,38.51838 3.743949,40.74281 2.58791,2.69272 11.095691,-19.328377 12.599753,-40.74281 1.647494,-25.980365 0.09908,-42.030119 -3.744516,-40.742293 z"
         style="fill:#8ca210;fill-opacity:1;stroke:#7a8a1c;stroke-width:0.45700163;stroke-linecap:butt;stroke-linejoin:miter;stroke-miterlimit:4;stroke-dasharray:none;stroke-opacity:1"
         inkscape:connector-curvature="0" />
      <path
         id="path816-0"
         d="m 139.18493,16.072701 c 3.67133,1.752884 4.75207,14.769326 -4.02575,43.350003 -8.77782,28.580669 -16.55514,37.368382 -20.22647,35.615499 -3.67132,-1.752883 -4.75243,-14.770066 4.0254,-43.350738 8.77782,-28.580679 16.55551,-37.367642 20.22682,-35.614764 z"
         style="fill:#8ca210;fill-opacity:1;stroke:#7a8a1c;stroke-width:0.47963062;stroke-linecap:butt;stroke-linejoin:miter;stroke-miterlimit:4;stroke-dasharray:none;stroke-opacity:1"
         inkscape:connector-curvature="0" />
      <path
         id="path816-2-6"
         d="m 87.002019,16.289504 c 3.971656,1.490123 7.528173,12.739797 1.859428,40.742294 C 83.781799,83.378597 78.810979,96.284487 74.377597,97.774599 70.405939,96.284487 67.860024,83.875305 72.517737,57.031798 75.525802,29.029301 82.568635,17.779627 87.002019,16.289504 Z"
         style="fill:#94aa10;fill-opacity:1;stroke:#7a8a1c;stroke-width:0.45700163;stroke-linecap:butt;stroke-linejoin:miter;stroke-miterlimit:4;stroke-dasharray:none;stroke-opacity:1"
         inkscape:connector-curvature="0" />
      <path
         sodipodi:nodetypes="sscss"
         inkscape:connector-curvature="0"
         id="path816-6-3"
         d="m 128.25805,86.025074 c 3.64667,0.516967 12.93334,12.839377 22.79855,40.804696 5.28769,14.98914 11.1015,37.50231 7.37816,36.44329 -3.72335,-1.05903 -12.13194,-13.00328 -22.70327,-40.96033 -9.21303,-24.364968 -13.84145,-37.190414 -7.47344,-36.287656 z"
         style="fill:#8ca210;fill-opacity:1;stroke:#7a8a1c;stroke-width:0.42167115;stroke-linecap:butt;stroke-linejoin:miter;stroke-miterlimit:4;stroke-dasharray:none;stroke-opacity:1" />
      <path
         sodipodi:nodetypes="ccccc"
         id="path816-60-3"
         d="m 85.802539,92.945487 c 3.58364,2.458576 11.38879,11.249693 19.823141,40.742313 8.43435,29.49261 6.07726,38.51837 3.48011,40.7428 -2.11047,2.69272 -14.522781,-19.32838 -19.823811,-40.7428 -6.25403,-25.98036 -7.55139,-42.030139 -3.47944,-40.742313 z"
         style="fill:#8a9e14;fill-opacity:1;stroke:#7a8a1c;stroke-width:0.45700163;stroke-linecap:butt;stroke-linejoin:miter;stroke-miterlimit:4;stroke-dasharray:none;stroke-opacity:1"
         inkscape:connector-curvature="0" />
      <path
         id="path816-4"
         d="m 95.583228,176.98508 c -3.70365,0 -11.52945,-11.24968 -20.33253,-40.7423 -8.80308,-29.49261 -7.69314,-40.742828 -3.98949,-40.742828 3.70365,0 11.53012,11.250218 20.3332,40.742828 8.803082,29.49262 7.69247,40.7423 3.98882,40.7423 z"
         style="fill:#899e14;fill-opacity:1;stroke:#7a8a1c;stroke-width:0.45700163;stroke-linecap:butt;stroke-linejoin:miter;stroke-miterlimit:4;stroke-dasharray:none;stroke-opacity:1"
         inkscape:connector-curvature="0" />
      <path
         id="path816-2-0"
         d="M 88.497028,97.151831 C 84.883207,95.529065 82.339498,83.278017 89.601413,52.782914 96.196251,24.090889 101.75065,10.036198 106.00479,8.4134341 c 3.61383,1.6227639 5.13054,15.1365299 -1.10401,44.3694799 -4.77124,30.495103 -12.149596,42.746151 -16.403752,44.368917 z"
         style="fill:#8ca210;fill-opacity:1;stroke:#7a8a1c;stroke-width:0.46141949;stroke-linecap:butt;stroke-linejoin:miter;stroke-miterlimit:4;stroke-dasharray:none;stroke-opacity:1"
         inkscape:connector-curvature="0" />
      <path
         sodipodi:nodetypes="sscss"
         inkscape:connector-curvature="0"
         id="path816-6-7"
         d="m 33.090406,103.25285 c -4.04002,0.50705 -7.273455,12.59307 -1.173022,40.0219 3.269775,14.70158 10.731832,36.78286 14.516299,35.74416 3.784462,-1.03872 6.207731,-12.75383 0.959029,-40.17456 -4.574316,-23.89754 -7.24739,-36.47694 -14.302306,-35.5915 z"
         style="fill:#849a10;fill-opacity:1;stroke:#7a8a1c;stroke-width:0.45722535;stroke-linecap:butt;stroke-linejoin:miter;stroke-miterlimit:4;stroke-dasharray:none;stroke-opacity:1" />
      <path
         sodipodi:nodetypes="ccccc"
         id="path816-60-6"
         d="M 80.317096,178.71962 C 76.551978,176.38126 68.397553,167.85055 59.85317,138.63077 51.308784,109.41099 53.927575,100.30159 56.709827,97.988314 c 2.272716,-2.765295 15.132928,18.845186 20.464618,40.089356 6.280636,25.77981 7.440925,41.79252 3.142651,40.64195 z"
         style="fill:#90a610;fill-opacity:1;stroke:#7a8a1c;stroke-width:0.47047058;stroke-linecap:butt;stroke-linejoin:miter;stroke-miterlimit:4;stroke-dasharray:none;stroke-opacity:1"
         inkscape:connector-curvature="0" />
      <path
         sodipodi:nodetypes="ccccc"
         id="path816-0-2"
         d="m 115.06338,88.718982 c 6.09509,-1.873202 13.74198,13.825338 23.69146,43.317948 9.94946,29.49262 7.91235,38.16716 3.79791,38.16716 -4.11443,0 -12.07776,-6.56719 -23.61935,-45.42581 -9.94947,-29.492626 -3.87002,-36.059298 -3.87002,-36.059298 z"
         style="fill:#829810;fill-opacity:1;stroke:#7a8a1c;stroke-width:0.48167947;stroke-linecap:butt;stroke-linejoin:miter;stroke-miterlimit:4;stroke-dasharray:none;stroke-opacity:1"
         inkscape:connector-curvature="0" />
      <path
         sodipodi:nodetypes="ccccc"
         id="path816-0-2-6"
         d="m 117.70886,16.514152 c 5.04687,0.259427 4.02904,16.10481 -0.98752,44.51812 -5.01655,28.413319 -9.98079,35.24743 -12.87272,33.984981 -2.89193,-1.262448 -5.814906,-9.352942 1.89654,-46.308537 5.01657,-28.413318 11.9637,-32.194564 11.9637,-32.194564 z"
         style="fill:#889e10;fill-opacity:1;stroke:#7a8a1c;stroke-width:0.41136226;stroke-linecap:butt;stroke-linejoin:miter;stroke-miterlimit:4;stroke-dasharray:none;stroke-opacity:1"
         inkscape:connector-curvature="0" />
      <path
         id="path816-2-6-6"
         d="m 103.19752,90.193216 c -3.911411,1.583942 -6.401565,13.541904 2.25752,43.307434 7.8873,28.00558 14.29089,41.72402 18.97898,43.30795 3.91141,-1.58393 5.24918,-14.77439 -2.25714,-43.30795 -5.93684,-29.76553 -14.29127,-41.723492 -18.97936,-43.307434 z"
         style="fill:#8ca210;fill-opacity:1;stroke:#7a8a1c;stroke-width:0.47658777;stroke-linecap:butt;stroke-linejoin:miter;stroke-miterlimit:4;stroke-dasharray:none;stroke-opacity:1"
         inkscape:connector-curvature="0" />
      <path
         sodipodi:nodetypes="ccccc"
         id="path816-60-1"
         d="m 171.47091,164.54898 c -3.82271,-2.45858 -12.48269,-11.24969 -23.7848,-40.74231 -11.30211,-29.492622 -9.82266,-38.518394 -7.4418,-40.742824 1.84864,-2.692722 16.40221,19.328394 23.7855,40.742824 8.78029,25.98037 11.63827,42.03012 7.4411,40.74231 z"
         style="fill:#8fa513;fill-opacity:1;stroke:#7a8a1c;stroke-width:0.45700163;stroke-linecap:butt;stroke-linejoin:miter;stroke-miterlimit:4;stroke-dasharray:none;stroke-opacity:1"
         inkscape:connector-curvature="0" />
      <path
         inkscape:connector-curvature="0"
         id="path816-8"
         d="m 157.72764,13.608811 c -3.70365,0 -11.65078,10.633067 -20.77195,38.509151 -9.12116,27.876084 -8.13257,38.509639 -4.42891,38.509639 3.70364,0 11.65145,-10.633555 20.77261,-38.509639 9.12118,-27.876085 8.1319,-38.509151 4.42825,-38.509151 z"
         style="fill:#849a10;fill-opacity:1;stroke:#7a8a1c;stroke-width:0.44430068;stroke-linecap:butt;stroke-linejoin:miter;stroke-miterlimit:4;stroke-dasharray:none;stroke-opacity:1" />
      <path
         inkscape:connector-curvature="0"
         id="path816-2-4"
         d="m 28.243572,40.795789 c -3.691329,-0.512171 -9.325484,6.334119 -11.132899,29.262269 -1.914126,21.46956 -0.763252,32.992702 2.6166,35.887652 3.691323,0.51216 8.747574,-7.598022 11.133395,-29.262492 4.045847,-21.8496 0.762751,-32.9925 -2.617096,-35.887429 z"
         style="fill:#899f13;fill-opacity:1;stroke:#7a8a1c;stroke-width:0.38643354;stroke-linecap:butt;stroke-linejoin:miter;stroke-miterlimit:4;stroke-dasharray:none;stroke-opacity:1" />
      <path
         sodipodi:nodetypes="ccccc"
         id="path816-60-5"
         d="m 174.15152,18.682659 c -3.65406,2.07322 -11.71098,9.486409 -20.98999,34.356372 -9.27899,24.86996 -7.1804,32.481033 -4.64695,34.356803 2.03335,2.270672 15.07633,-16.298855 20.99065,-34.356803 6.99811,-21.90822 8.75513,-35.442345 4.64629,-34.356372 z"
         style="fill:#8ca210;fill-opacity:1;stroke:#7a8a1c;stroke-width:0.41966105;stroke-linecap:butt;stroke-linejoin:miter;stroke-miterlimit:4;stroke-dasharray:none;stroke-opacity:1"
         inkscape:connector-curvature="0" />
      <path
         id="path816-0-0"
         d="m 230.63738,31.865338 c 2.60871,1.083185 1.34785,9.126624 -10.20811,26.787896 -11.55595,17.661267 -19.1111,23.091585 -21.71981,22.008402 -2.6087,-1.083185 -1.34802,-9.127081 10.20795,-26.78835 11.55595,-17.661273 19.11127,-23.09113 21.71997,-22.007948 z"
         style="fill:#849a10;fill-opacity:1;stroke:#7a8a1c;stroke-width:0.33470246;stroke-linecap:butt;stroke-linejoin:miter;stroke-miterlimit:4;stroke-dasharray:none;stroke-opacity:1"
         inkscape:connector-curvature="0" />
      <path
         id="path816-2-6-2"
         d="m 195.94839,21.136976 c 2.62061,1.97586 1.53968,11.903121 -12.61606,33.872241 -13.11828,20.7181 -21.50429,30.398081 -25.51966,30.787074 -2.62062,-1.975853 -0.34096,-12.666313 12.6159,-33.872745 12.05508,-22.47145 21.50445,-30.39757 25.51982,-30.78657 z"
         style="fill:#8ca30f;fill-opacity:1;stroke:#7a8a1c;stroke-width:0.38639095;stroke-linecap:butt;stroke-linejoin:miter;stroke-miterlimit:4;stroke-dasharray:none;stroke-opacity:1"
         inkscape:connector-curvature="0" />
      <path
         sodipodi:nodetypes="sscss"
         inkscape:connector-curvature="0"
         id="path816-6-3-5"
         d="m 167.48275,81.798273 c 3.42605,-0.512952 12.15088,8.816651 21.41925,33.102667 4.96779,13.01706 10.42987,33.15913 6.93179,33.16955 -3.49809,0.0105 -11.39797,-9.19756 -21.32974,-33.27951 -8.65565,-20.987788 -13.00406,-32.09694 -7.0213,-32.992707 z"
         style="fill:#8ca210;fill-opacity:1;stroke:#7a8a1c;stroke-width:0.40178826;stroke-linecap:butt;stroke-linejoin:miter;stroke-miterlimit:4;stroke-dasharray:none;stroke-opacity:1" />
      <path
         sodipodi:nodetypes="ccccc"
         id="path816-60-3-4"
         d="m 2.0303776,108.35627 c 3.12976,2.0924 9.9463694,9.57413 17.3124904,34.67409 7.366109,25.09995 5.307549,32.7814 3.039339,34.67452 -1.843169,2.29166 -12.6834297,-16.44959 -17.3130694,-34.67452 -5.4619401,-22.11081 -6.5949901,-35.77011 -3.03876,-34.67409 z"
         style="fill:#8ca210;fill-opacity:1;stroke:#7a8a1c;stroke-width:0.39399526;stroke-linecap:butt;stroke-linejoin:miter;stroke-miterlimit:4;stroke-dasharray:none;stroke-opacity:1"
         inkscape:connector-curvature="0" />
      <path
         id="path816-4-1"
         d="m 6.010802,179.89694 c -3.3108932,-1.21757 -9.1580851,-12.36568 -14.0160702,-37.74127 -4.8579858,-25.37558 -2.7169558,-33.58647 0.5939477,-32.3689 3.3109014,1.21757 9.1586259,12.3663 14.0166242,37.74187 4.8579853,25.3756 2.7164027,33.58586 -0.5945017,32.3683 z"
         style="fill:#8ca210;fill-opacity:1;stroke:#7a8a1c;stroke-width:0.38643354;stroke-linecap:butt;stroke-linejoin:miter;stroke-miterlimit:4;stroke-dasharray:none;stroke-opacity:1"
         inkscape:connector-curvature="0" />
      <path
         id="path816-2-0-3"
         d="m 172.14206,85.207966 c -3.28373,-1.083173 -3.30439,-9.260577 10.25492,-29.615628 12.51959,-19.151522 20.97911,-28.532831 25.5732,-29.616003 3.28375,1.083172 2.01573,10.103421 -10.25465,29.616003 -11.06551,20.355051 -20.97936,28.532455 -25.57347,29.615628 z"
         style="fill:#92a810;fill-opacity:1;stroke:#7a8a1c;stroke-width:0.37721512;stroke-linecap:butt;stroke-linejoin:miter;stroke-miterlimit:4;stroke-dasharray:none;stroke-opacity:1"
         inkscape:connector-curvature="0" />
      <path
         sodipodi:nodetypes="ccccc"
         id="path816-60-6-6"
         d="m -6.5165341,183.79096 c -3.1270782,-3.02026 -9.5456879,-12.20381 -14.2002699,-37.28636 -4.654591,-25.08256 -1.383313,-31.16552 1.340121,-32.01421 2.31408,-1.36077 11.6038385,19.34019 14.200826,37.28694 2.9821575,21.71615 2.3842978,34.30374 -1.3406771,32.01363 z"
         style="fill:#8ca210;fill-opacity:1;stroke:#7a8a1c;stroke-width:0.39782268;stroke-linecap:butt;stroke-linejoin:miter;stroke-miterlimit:4;stroke-dasharray:none;stroke-opacity:1"
         inkscape:connector-curvature="0" />
      <path
         sodipodi:nodetypes="ccccc"
         id="path816-0-2-3"
         d="m 154.56399,81.603134 c 5.83597,-0.45867 13.15777,14.596388 22.68428,42.036976 9.52648,27.44056 7.57597,34.56399 3.63645,33.77854 -3.93952,-0.78547 -11.56431,-7.993 -22.61524,-43.84864 -9.52649,-27.44059 -3.70549,-31.966876 -3.70549,-31.966876 z"
         style="fill:#869c10;fill-opacity:1;stroke:#7a8a1c;stroke-width:0.43862012;stroke-linecap:butt;stroke-linejoin:miter;stroke-miterlimit:4;stroke-dasharray:none;stroke-opacity:1"
         inkscape:connector-curvature="0" />
      <path
         sodipodi:nodetypes="ccccc"
         id="path816-0-2-6-4"
         d="m 218.01851,31.38345 c 4.99971,0.173164 0.71319,10.749734 -10.16868,29.715219 -10.88184,18.96549 -17.26154,23.527163 -19.89677,22.684496 -2.63523,-0.842667 -3.89356,-6.242957 11.44802,-30.910296 10.88187,-18.96549 18.61743,-21.489419 18.61743,-21.489419 z"
         style="fill:#8da313;fill-opacity:1;stroke:#7a8a1c;stroke-width:0.3362928;stroke-linecap:butt;stroke-linejoin:miter;stroke-miterlimit:4;stroke-dasharray:none;stroke-opacity:1"
         inkscape:connector-curvature="0" />
      <path
         id="path816-2-6-6-0"
         d="m 15.458676,105.50381 c -3.416022,1.34803 -5.5907926,11.52495 1.9716,36.85717 6.88836,23.83439 12.48091,35.50959 16.57524,36.85761 3.41601,-1.34802 4.58436,-12.57388 -1.97127,-36.85761 -5.18492,-25.33222 -12.48124,-35.50914 -16.57557,-36.85717 z"
         style="fill:#92a810;fill-opacity:1;stroke:#7a8a1c;stroke-width:0.4108811;stroke-linecap:butt;stroke-linejoin:miter;stroke-miterlimit:4;stroke-dasharray:none;stroke-opacity:1"
         inkscape:connector-curvature="0" />
      <path
         sodipodi:nodetypes="ccccc"
         id="path816-60-1-0"
         d="m 213.30594,149.04506 c -3.69451,-2.12918 -12.37075,-9.74245 -25.40936,-35.28364 -13.03863,-25.541212 -12.55855,-33.357706 -10.61504,-35.284106 1.41714,-2.331948 16.68789,16.738756 25.41005,35.284106 10.42143,22.49951 14.5364,36.39891 10.61435,35.28364 z"
         style="fill:#8ca210;fill-opacity:1;stroke:#7a8a1c;stroke-width:0.40463561;stroke-linecap:butt;stroke-linejoin:miter;stroke-miterlimit:4;stroke-dasharray:none;stroke-opacity:1"
         inkscape:connector-curvature="0" />
      <path
         inkscape:connector-curvature="0"
         id="path816-2-4-9"
         d="m 189.75767,76.160877 c -3.91984,0.425868 -4.94346,7.720425 8.20688,28.119413 12.09836,19.15366 20.70836,28.91925 25.87469,30.64253 3.91982,-0.42587 3.56019,-8.68484 -8.20654,-28.11972 C 205.35864,86.814814 194.92397,77.884139 189.75767,76.160877 Z"
         style="fill:#889e10;fill-opacity:1;stroke:#7a8a1c;stroke-width:0.38643354;stroke-linecap:butt;stroke-linejoin:miter;stroke-miterlimit:4;stroke-dasharray:none;stroke-opacity:1" />
      <path
         id="path816-2-6-6-0-1"
         d="M 7.6926696,107.77876 C 4.0414435,106.55506 0.11908362,97.316818 3.3468359,74.321116 6.1565833,52.685099 9.7538755,42.086764 13.621933,40.863079 c 3.651213,1.223685 6.745814,11.414125 4.346239,33.458037 -0.847454,22.995702 -6.407446,32.233944 -10.2755024,33.457644 z"
         style="fill:#869c10;fill-opacity:1;stroke:#7a8a1c;stroke-width:0.39170659;stroke-linecap:butt;stroke-linejoin:miter;stroke-miterlimit:4;stroke-dasharray:none;stroke-opacity:1"
         inkscape:connector-curvature="0" />
      <path
         inkscape:connector-curvature="0"
         id="path816-2-5"
         d="m -25.996126,118.20327 c -2.456655,2.64599 -4.533534,13.15548 -0.65341,34.11383 3.492461,19.81012 6.750369,28.62478 9.531733,28.26004 2.456664,-2.64598 3.889349,-13.74537 0.653682,-34.11441 -2.221988,-21.91141 -6.750632,-28.62419 -9.532005,-28.25946 z"
         style="fill:#8aa012;fill-opacity:1;stroke:#7a8a1c;stroke-width:0.32829964;stroke-linecap:butt;stroke-linejoin:miter;stroke-miterlimit:4;stroke-dasharray:none;stroke-opacity:1" />
      <path
         sodipodi:nodetypes="ccccc"
         id="path816-60-3-2"
         d="m -9.1754707,55.07251 c 1.857175,1.531922 4.929382,7.488022 2.58995,29.165181 -2.339424,21.677189 -6.5735863,28.782829 -9.0535563,30.726629 -2.265795,2.2543 -4.875341,-13.34725 -2.590288,-29.165537 2.898569,-19.207954 6.517429,-31.319069 9.0538943,-30.726273 z"
         style="fill:#8ca210;fill-opacity:1;stroke:#7a8a1c;stroke-width:0.32829964;stroke-linecap:butt;stroke-linejoin:miter;stroke-miterlimit:4;stroke-dasharray:none;stroke-opacity:1"
         inkscape:connector-curvature="0" />
      <path
         id="path816-4-4"
         d="m -25.996126,120.84912 c -2.638615,0.35376 -5.029601,-7.47459 -2.95286,-29.116574 2.076729,-21.641932 6.052041,-30.324187 8.690655,-30.677947 2.638622,-0.35376 5.029925,7.474922 2.953189,29.116855 -2.076726,21.641986 -6.05237,30.323906 -8.690984,30.677666 z"
         style="fill:#869919;fill-opacity:1;stroke:#7a8a1c;stroke-width:0.32829964;stroke-linecap:butt;stroke-linejoin:miter;stroke-miterlimit:4;stroke-dasharray:none;stroke-opacity:1"
         inkscape:connector-curvature="0" />
      <path
         sodipodi:nodetypes="sscss"
         inkscape:connector-curvature="0"
         id="path816-6-7-0"
         d="m -36.320998,123.88721 c -2.483908,1.88628 -4.057123,12.88495 0.694822,32.94191 2.546998,10.75032 7.952271,25.96602 10.259042,23.74109 2.306769,-2.22492 3.391437,-12.62662 -0.832759,-32.98782 -3.681442,-17.74506 -5.783549,-26.98909 -10.121105,-23.69518 z"
         style="fill:#8da80a;fill-opacity:1;stroke:#7a8a1c;stroke-width:0.32846037;stroke-linecap:butt;stroke-linejoin:miter;stroke-miterlimit:4;stroke-dasharray:none;stroke-opacity:1" />
      <path
         sodipodi:nodetypes="ccccc"
         id="path816-60-6-0"
         d="m -36.850165,127.06223 c -2.0205,-1.42295 -5.415244,-7.14719 -3.231442,-28.605909 2.18381,-21.458659 6.628088,-28.65305 9.26507,-30.682251 2.401937,-2.32512 5.446821,12.920579 3.231798,28.606146 -2.822832,19.052604 -6.528868,31.148554 -9.265426,30.682014 z"
         style="fill:#8ca210;fill-opacity:1;stroke:#7a8a1c;stroke-width:0.33797541;stroke-linecap:butt;stroke-linejoin:miter;stroke-miterlimit:4;stroke-dasharray:none;stroke-opacity:1"
         inkscape:connector-curvature="0" />
      <path
         id="path816-2-6-6-9"
         d="M 3.6968381,45.769679 C 0.46184771,47.350752 -4.6971247,56.704373 -6.9536947,78.568111 -9.2619297,99.16392 -8.5830127,109.01009 -5.6914037,109.76977 -2.4564099,108.1887 2.2304378,98.005586 4.9595492,76.9709 9.1555484,54.847142 6.5884429,46.529358 3.6968381,45.769679 Z"
         style="fill:#8ca210;fill-opacity:1;stroke:#7a8a1c;stroke-width:0.34236988;stroke-linecap:butt;stroke-linejoin:miter;stroke-miterlimit:4;stroke-dasharray:none;stroke-opacity:1"
         inkscape:connector-curvature="0" />
      <path
         inkscape:connector-curvature="0"
         id="path816-1"
         d="m 252.93424,47.575437 c -1.25701,-2.175127 -7.08592,-0.800057 -18.39173,9.684058 -11.30583,10.484113 -14.10212,17.107361 -12.84511,19.282494 1.25701,2.175128 7.08629,0.800174 18.3921,-9.683937 11.30583,-10.484111 14.10176,-17.107478 12.84474,-19.282615 z"
         style="fill:#8ca210;fill-opacity:1;stroke:#7a8a1c;stroke-width:0.26873308;stroke-linecap:butt;stroke-linejoin:miter;stroke-miterlimit:4;stroke-dasharray:none;stroke-opacity:1" />
      <path
         sodipodi:nodetypes="sscss"
         inkscape:connector-curvature="0"
         id="path816-6-8"
         d="m 249.07915,115.90102 c -3.84272,0.40133 -13.78015,-4.83715 -24.54135,-18.863526 -5.7679,-7.518013 -12.19279,-19.215613 -8.26196,-19.323223 3.93084,-0.10763 12.9395,5.0832 24.44329,18.970233 10.0257,12.102746 15.07043,18.515676 8.36002,19.216516 z"
         style="fill:#8ca210;fill-opacity:1;stroke:#7a8a1c;stroke-width:0.32687891;stroke-linecap:butt;stroke-linejoin:miter;stroke-miterlimit:4;stroke-dasharray:none;stroke-opacity:1" />
      <path
         sodipodi:nodetypes="ccccc"
         id="path816-60-0"
         d="m 225.59078,76.582988 c -1.03726,1.74477 -1.13963,6.51836 11.298,17.340859 12.43764,10.822503 19.79974,12.690093 23.06594,12.560613 3.20965,0.14554 -1.67429,-9.723807 -11.29785,-17.34121 -11.80313,-9.189709 -20.94243,-14.116157 -23.06609,-12.560262 z"
         style="fill:#8ca210;fill-opacity:1;stroke:#7a8a1c;stroke-width:0.28450948;stroke-linecap:butt;stroke-linejoin:miter;stroke-miterlimit:4;stroke-dasharray:none;stroke-opacity:1"
         inkscape:connector-curvature="0" />
      <path
         id="path816-0-5"
         d="m 262.70319,54.557921 c 4.388,-1.529827 6.37473,-0.344039 -2.29437,7.602926 -8.6691,7.946959 -17.26948,12.823903 -21.65746,14.353717 -4.388,1.529829 -6.3752,0.344107 2.29387,-7.602863 8.66912,-7.946971 17.26997,-12.823989 21.65792,-14.353791 z"
         style="fill:#849a10;fill-opacity:1;stroke:#7a8a1c;stroke-width:0.20326525;stroke-linecap:butt;stroke-linejoin:miter;stroke-miterlimit:4;stroke-dasharray:none;stroke-opacity:1"
         inkscape:connector-curvature="0" />
      <path
         id="path816-2-6-5"
         d="m 260.90346,50.76993 c 1.50838,1.156601 0.63503,5.395963 -8.27608,13.480049 -8.26643,7.649264 -13.46748,10.974229 -15.85856,10.702075 -1.5084,-1.156592 0.0939,-5.598802 8.27599,-13.480283 7.67672,-8.536363 13.46756,-10.973984 15.85865,-10.701841 z"
         style="fill:#8ca40e;fill-opacity:1;stroke:#7a8a1c;stroke-width:0.19816735;stroke-linecap:butt;stroke-linejoin:miter;stroke-miterlimit:4;stroke-dasharray:none;stroke-opacity:1"
         inkscape:connector-curvature="0" />
      <path
         id="path816-2-0-7"
         d="M 267.51182,101.02002 C 263.32873,100.6277 254.10121,97.192848 243.41498,88.38483 233.1458,80.102127 230.21527,76.000637 233.1413,75.458322 c 4.18313,0.392553 13.19683,4.205699 24.09752,12.635338 12.93668,8.760622 13.19903,12.38404 10.273,12.92636 z"
         style="fill:#869c10;fill-opacity:1;stroke:#7a8a1c;stroke-width:0.23871346;stroke-linecap:butt;stroke-linejoin:miter;stroke-miterlimit:4;stroke-dasharray:none;stroke-opacity:1"
         inkscape:connector-curvature="0" />
      <path
         sodipodi:nodetypes="ccccc"
         id="path816-0-2-6-2"
         d="m 204.00789,78.989573 c 5.70503,-1.10196 14.79528,7.891813 27.59366,24.806417 12.79837,16.91463 11.75346,21.91006 7.76691,21.92698 -3.98652,0.0169 -12.40554,-3.72591 -27.74951,-26.018567 -12.79835,-16.914625 -7.61106,-20.71483 -7.61106,-20.71483 z"
         style="fill:#91ab0b;fill-opacity:1;stroke:#7a8a1c;stroke-width:0.35964289;stroke-linecap:butt;stroke-linejoin:miter;stroke-miterlimit:4;stroke-dasharray:none;stroke-opacity:1"
         inkscape:connector-curvature="0" />
      <path
         inkscape:connector-curvature="0"
         id="path816-2-4-92"
         d="m 244.00165,38.046982 c -3.44325,-1.164763 -11.54476,1.739247 -21.87866,15.395294 -9.89477,12.736238 -13.06092,20.073849 -10.81333,22.629314 3.44325,1.164728 11.44735,-2.648158 21.87924,-15.39534 12.13537,-12.478399 13.06035,-20.073847 10.81275,-22.629268 z"
         style="fill:#96ac10;fill-opacity:1;stroke:#7a8a1c;stroke-width:0.32105175;stroke-linecap:butt;stroke-linejoin:miter;stroke-miterlimit:4;stroke-dasharray:none;stroke-opacity:1" />
      <path
         id="path816-2-6-52"
         d="m 239.47961,75.395746 c 1.17207,1.349566 6.81897,1.329414 19.11594,-4.330323 11.60063,-5.227014 16.98241,-8.746442 17.13624,-10.643673 -1.17207,-1.349573 -7.23416,-0.795344 -19.11621,4.330214 -12.6193,4.631939 -16.98214,8.746547 -17.13597,10.643782 z"
         style="fill:#96ac10;fill-opacity:1;stroke:#7a8a1c;stroke-width:0.20135117;stroke-linecap:butt;stroke-linejoin:miter;stroke-miterlimit:4;stroke-dasharray:none;stroke-opacity:1"
         inkscape:connector-curvature="0" />
      <path
         sodipodi:nodetypes="ccccc"
         id="path816-60-1-4"
         d="m 285.98709,71.692765 c -1.75294,1.170709 -7.38275,3.532521 -24.00824,4.990976 -16.62548,1.458455 -21.08428,0.1062 -21.92629,-0.961412 -1.15093,-0.915975 12.04177,-4.232001 24.00859,-4.991189 14.49575,-0.856502 23.12377,-0.45098 21.92594,0.961625 z"
         style="fill:#8ca210;fill-opacity:1;stroke:#7a8a1c;stroke-width:0.20387241;stroke-linecap:butt;stroke-linejoin:miter;stroke-miterlimit:4;stroke-dasharray:none;stroke-opacity:1"
         inkscape:connector-curvature="0" />
      <path
         id="path816-2-0-2"
         d="m 277.05509,90.908186 c -1.16613,1.31428 -7.26468,1.20233 -20.95862,-4.58999 -12.91026,-5.35342 -18.98019,-8.91839 -19.28597,-10.79537 1.16613,-1.3143 7.75228,-0.66791 20.95893,4.58988 13.9663,4.78209 18.97988,8.91848 19.28566,10.79548 z"
         style="fill:#92a810;fill-opacity:1;stroke:#7a8a1c;stroke-width:0.20784791;stroke-linecap:butt;stroke-linejoin:miter;stroke-miterlimit:4;stroke-dasharray:none;stroke-opacity:1"
         inkscape:connector-curvature="0" />
      <path
         inkscape:connector-curvature="0"
         id="path816-2-4-2"
         d="m -41.219862,84.603858 c -2.585004,-0.39149 -6.53055,4.84156 -7.796266,22.366942 -1.340445,16.41049 -0.534498,25.21834 1.832381,27.43112 2.584999,0.39148 6.125845,-5.80762 7.796612,-22.3671 2.83327,-16.700982 0.534148,-25.218192 -1.832727,-27.430962 z"
         style="fill:#95ad11;fill-opacity:1;stroke:#7a8a1c;stroke-width:0.28272438;stroke-linecap:butt;stroke-linejoin:miter;stroke-miterlimit:4;stroke-dasharray:none;stroke-opacity:1" />
      <path
         sodipodi:nodetypes="ccccc"
         id="path816-60-1-0-7"
         d="m -35.157056,172.42522 c -2.370266,-1.82046 -7.355054,-7.40907 -11.707971,-22.89492 -4.35293,-15.48585 -2.243653,-19.31727 -0.31872,-19.89091 1.609974,-0.88436 9.121384,11.80239 11.708405,22.89528 3.015104,13.4255 3.089388,21.24756 0.318286,19.89055 z"
         style="fill:#8ca210;fill-opacity:1;stroke:#7a8a1c;stroke-width:0.26599926;stroke-linecap:butt;stroke-linejoin:miter;stroke-miterlimit:4;stroke-dasharray:none;stroke-opacity:1"
         inkscape:connector-curvature="0" />
      <path
         id="path1259"
         transform="scale(0.26458333)"
         d="m 816.54883,278.77148 c -63.95815,0.0703 -68.29147,2.93354 -99.35352,9.08008 C 523.49029,319.39525 576.24015,299.5971 423.88672,335.91602 241.85215,358.99568 325.6319,353.25709 106.87891,381.4375 -58.6304,395.82136 -203.63775,500.81588 -329.33984,577.49414 l -28.59766,25.45313 3.77148,3.14257 29.85547,-14.76953 c 145.97913,-83.34467 151.58539,-95.36296 274.773441,-153.81445 96.1621,-38.96765 111.759723,-32.74 201.636719,-47.88086 209.92249,-28.91148 257.37563,-17.65533 385.5918,-50.33789 153.35656,-29.53998 264.28874,-35.82454 411.14062,-58.92578 -61.819,-1.07604 -103.21132,-1.62179 -132.2832,-1.58985 z"
         style="fill:#83980f;fill-opacity:1;stroke:#566114;stroke-width:0.99999994px;stroke-linecap:butt;stroke-linejoin:miter;stroke-opacity:1"
         inkscape:connector-curvature="0" />
    </g>
  </g>
  <inkscape:templateinfo>
    <inkscape:name>Icon Logo Basis</inkscape:name>
    <inkscape:date>2022-09-13</inkscape:date>
  </inkscape:templateinfo>
</svg>
